<?xml version="1.0" encoding="utf-8"?>
<!-- Generator: Adobe Illustrator 16.0.0, SVG Export Plug-In . SVG Version: 6.00 Build 0)  -->
<!DOCTYPE svg PUBLIC "-//W3C//DTD SVG 1.1//EN" "http://www.w3.org/Graphics/SVG/1.1/DTD/svg11.dtd">
<svg version="1.1" id="Layer_1" xmlns="http://www.w3.org/2000/svg" xmlns:xlink="http://www.w3.org/1999/xlink" x="0px" y="0px"
	 width="741.934px" height="152.688px" viewBox="0 0 741.934 152.688" enable-background="new 0 0 741.934 152.688"
	 xml:space="preserve">
<g>
	<path d="M14.989,12.99H40.51c4.794,0,9.563,0.281,14.312,0.846c4.745,0.563,9,1.787,12.76,3.666
		c3.759,1.881,6.814,4.631,9.165,8.249c2.349,3.62,3.525,8.53,3.525,14.733c0,7.332-2.209,13.254-6.627,17.767
		c-4.419,4.512-10.529,7.38-18.33,8.601l28.341,45.966H69.133L42.061,67.979H26.833v44.838H14.989V12.99z M26.833,56.981h10.575
		c3.289,0,6.697-0.093,10.222-0.281c3.525-0.188,6.768-0.798,9.729-1.833c2.961-1.033,5.404-2.655,7.332-4.864
		c1.926-2.208,2.891-5.38,2.891-9.519c0-3.57-0.705-6.438-2.115-8.601c-1.41-2.161-3.268-3.829-5.57-5.005
		c-2.304-1.174-4.889-1.95-7.755-2.327c-2.869-0.375-5.759-0.564-8.671-0.564H26.833V56.981z"/>
	<path d="M158.103,100.833c-3.948,5.076-8.273,8.625-12.972,10.646c-4.701,2.021-10.152,3.031-16.356,3.031
		c-5.171,0-9.824-0.917-13.959-2.75c-4.137-1.833-7.638-4.3-10.504-7.402c-2.869-3.102-5.076-6.768-6.627-10.998
		c-1.551-4.229-2.327-8.741-2.327-13.535c0-5.076,0.846-9.751,2.538-14.029c1.692-4.276,4.041-7.942,7.05-10.998
		c3.007-3.054,6.579-5.429,10.716-7.121c4.135-1.692,8.647-2.538,13.536-2.538c4.604,0,8.835,0.776,12.69,2.327
		c3.853,1.551,7.167,3.807,9.94,6.768c2.771,2.961,4.911,6.581,6.416,10.857c1.502,4.278,2.256,9.143,2.256,14.594v3.525h-53.298
		c0.187,2.819,0.868,5.522,2.044,8.106c1.174,2.586,2.701,4.843,4.583,6.769c1.879,1.928,4.089,3.455,6.627,4.583
		s5.31,1.691,8.319,1.691c4.794,0,8.834-0.846,12.126-2.538c3.29-1.691,6.25-4.182,8.883-7.473L158.103,100.833z M148.656,73.901
		c-0.189-5.64-2.022-10.151-5.499-13.535c-3.479-3.385-8.272-5.076-14.382-5.076c-6.111,0-11.046,1.691-14.805,5.076
		c-3.761,3.384-6.017,7.896-6.768,13.535H148.656z"/>
	<path d="M243.408,109.856c0,12.031-3.08,21.172-9.235,27.424c-6.158,6.25-15.065,9.377-26.719,9.377
		c-6.486,0-12.338-0.94-17.555-2.82c-5.217-1.881-10.176-5.125-14.875-9.729l7.896-9.023c3.477,3.758,7.167,6.603,11.068,8.529
		c3.9,1.927,8.39,2.892,13.466,2.892c4.886,0,8.953-0.729,12.196-2.187c3.243-1.458,5.803-3.433,7.685-5.922
		c1.879-2.492,3.194-5.336,3.948-8.53c0.751-3.197,1.128-6.534,1.128-10.012v-8.46h-0.282c-2.633,4.23-6.063,7.332-10.293,9.307
		c-4.23,1.974-8.555,2.961-12.972,2.961c-5.17,0-9.918-0.847-14.241-2.538c-4.325-1.692-8.037-4.041-11.139-7.05
		c-3.102-3.008-5.499-6.578-7.191-10.717c-1.692-4.135-2.538-8.646-2.538-13.536c0-5.357,0.846-10.197,2.538-14.522
		c1.692-4.322,4.065-7.966,7.121-10.927c3.053-2.961,6.744-5.239,11.068-6.839c4.323-1.598,9.117-2.397,14.382-2.397
		c2.256,0,4.512,0.26,6.768,0.776c2.256,0.518,4.441,1.316,6.557,2.396c2.115,1.082,4.019,2.445,5.71,4.089
		c1.692,1.646,3.102,3.549,4.23,5.71h0.282V46.83h10.998L243.408,109.856L243.408,109.856z M185.598,79.823
		c0,3.384,0.61,6.51,1.833,9.376c1.22,2.868,2.89,5.357,5.005,7.473c2.115,2.115,4.583,3.785,7.402,5.005
		c2.82,1.223,5.827,1.833,9.024,1.833c3.759,0,7.096-0.656,10.011-1.974c2.913-1.315,5.38-3.078,7.402-5.288
		c2.021-2.208,3.547-4.746,4.583-7.614c1.033-2.866,1.551-5.897,1.551-9.094c0-3.571-0.564-6.838-1.692-9.8
		c-1.128-2.962-2.727-5.521-4.794-7.685c-2.069-2.162-4.561-3.829-7.473-5.006c-2.915-1.174-6.112-1.762-9.588-1.762
		c-3.479,0-6.651,0.634-9.518,1.902c-2.868,1.27-5.312,3.01-7.332,5.218c-2.021,2.21-3.596,4.794-4.724,7.755
		S185.598,76.347,185.598,79.823z"/>
	<path d="M322.649,100.833c-3.948,5.076-8.273,8.625-12.972,10.646c-4.701,2.021-10.152,3.031-16.356,3.031
		c-5.171,0-9.824-0.917-13.959-2.75c-4.137-1.833-7.638-4.3-10.504-7.402c-2.869-3.102-5.076-6.768-6.627-10.998
		c-1.551-4.229-2.327-8.741-2.327-13.535c0-5.076,0.846-9.751,2.538-14.029c1.692-4.276,4.041-7.942,7.05-10.998
		c3.007-3.054,6.579-5.429,10.716-7.121c4.135-1.692,8.647-2.538,13.536-2.538c4.604,0,8.835,0.776,12.69,2.327
		c3.853,1.551,7.167,3.807,9.94,6.768c2.771,2.961,4.911,6.581,6.416,10.857c1.502,4.278,2.256,9.143,2.256,14.594v3.525h-53.298
		c0.187,2.819,0.868,5.522,2.044,8.106c1.174,2.586,2.701,4.843,4.583,6.769c1.879,1.928,4.089,3.455,6.627,4.583
		s5.31,1.691,8.319,1.691c4.794,0,8.834-0.846,12.126-2.538c3.29-1.691,6.25-4.182,8.883-7.473L322.649,100.833z M313.202,73.901
		c-0.189-5.64-2.022-10.151-5.499-13.535c-3.479-3.385-8.272-5.076-14.382-5.076c-6.111,0-11.046,1.691-14.805,5.076
		c-3.761,3.384-6.017,7.896-6.768,13.535H313.202z"/>
	<path d="M342.107,62.48c0-3.007-0.095-5.827-0.282-8.46c-0.189-2.631-0.282-5.027-0.282-7.19h10.434
		c0,1.787,0.046,3.572,0.141,5.357c0.093,1.787,0.141,3.62,0.141,5.499h0.282c0.751-1.597,1.809-3.147,3.172-4.652
		c1.361-1.502,2.983-2.843,4.864-4.02c1.879-1.174,3.994-2.115,6.346-2.82c2.348-0.704,4.887-1.058,7.613-1.058
		c4.322,0,8.059,0.659,11.211,1.974c3.146,1.317,5.756,3.15,7.824,5.499c2.066,2.352,3.596,5.195,4.582,8.531
		c0.988,3.337,1.48,6.979,1.48,10.927v40.749h-10.998v-39.62c0-5.545-1.223-9.915-3.666-13.112
		c-2.445-3.195-6.252-4.794-11.42-4.794c-3.574,0-6.652,0.611-9.236,1.833c-2.586,1.223-4.701,2.961-6.345,5.217
		c-1.646,2.256-2.868,4.935-3.666,8.037c-0.8,3.102-1.198,6.534-1.198,10.293v32.147h-10.998L342.107,62.48L342.107,62.48z"/>
	<path d="M421.913,95.475c2.162,2.728,4.535,4.89,7.121,6.486c2.584,1.6,5.852,2.396,9.799,2.396c1.693,0,3.406-0.188,5.146-0.563
		c1.738-0.375,3.312-0.987,4.725-1.833c1.41-0.846,2.537-1.904,3.383-3.172c0.848-1.27,1.271-2.796,1.271-4.583
		c0-1.785-0.402-3.243-1.199-4.371c-0.799-1.128-1.857-2.091-3.172-2.892c-1.318-0.797-2.82-1.432-4.514-1.902
		c-1.691-0.47-3.432-0.894-5.217-1.27c-3.102-0.656-6.062-1.41-8.883-2.256s-5.287-1.95-7.402-3.313
		c-2.115-1.361-3.807-3.124-5.076-5.287c-1.27-2.162-1.902-4.936-1.902-8.319c0-3.194,0.705-6.014,2.115-8.46
		c1.408-2.443,3.289-4.463,5.639-6.062c2.35-1.598,4.982-2.82,7.896-3.666c2.912-0.847,5.922-1.27,9.023-1.27
		c4.699,0,9.045,0.941,13.043,2.82c3.994,1.881,7.119,4.935,9.375,9.165l-9.164,6.062c-1.41-2.349-3.268-4.252-5.57-5.71
		c-2.305-1.457-5.1-2.186-8.389-2.186c-1.504,0-3.031,0.188-4.582,0.563c-1.551,0.376-2.939,0.94-4.16,1.692
		c-1.223,0.753-2.232,1.716-3.031,2.891c-0.801,1.176-1.197,2.517-1.197,4.02c0,1.41,0.443,2.607,1.34,3.595
		c0.891,0.987,2.113,1.857,3.666,2.608c1.551,0.753,3.334,1.409,5.355,1.974s4.111,1.036,6.275,1.41
		c2.912,0.563,5.688,1.293,8.318,2.186c2.631,0.896,4.936,2.094,6.91,3.596c1.973,1.505,3.523,3.384,4.652,5.64
		c1.127,2.256,1.691,5.03,1.691,8.319c0,3.761-0.754,6.958-2.256,9.588c-1.506,2.632-3.504,4.771-5.992,6.415
		c-2.492,1.646-5.312,2.844-8.461,3.596c-3.15,0.751-6.369,1.128-9.658,1.128c-5.641,0-10.504-0.87-14.594-2.608
		c-4.09-1.737-7.779-4.957-11.068-9.658L421.913,95.475z"/>
	<path d="M516.665,56.135h-19.457v32.994c0,2.164,0.045,4.16,0.141,5.993c0.094,1.833,0.471,3.432,1.127,4.794
		c0.656,1.363,1.645,2.444,2.961,3.243c1.316,0.8,3.195,1.198,5.643,1.198c1.596,0,3.242-0.188,4.934-0.563
		c1.693-0.375,3.289-0.938,4.795-1.692l0.422,10.011c-1.881,0.847-3.971,1.457-6.273,1.833c-2.305,0.375-4.49,0.564-6.557,0.564
		c-3.947,0-7.1-0.518-9.445-1.551c-2.354-1.033-4.186-2.49-5.5-4.371c-1.316-1.879-2.186-4.206-2.607-6.979
		c-0.424-2.771-0.635-5.852-0.635-9.234V56.135h-14.383V46.83h14.383V28.076h10.998V46.83h19.457v9.305H516.665z"/>
	<path d="M530.2,62.48c0-3.007-0.096-5.827-0.281-8.46c-0.189-2.631-0.283-5.027-0.283-7.19h10.436c0,1.787,0.047,3.572,0.141,5.357
		c0.092,1.787,0.143,3.62,0.143,5.499h0.281c0.75-1.597,1.809-3.147,3.172-4.652c1.361-1.502,2.982-2.843,4.865-4.02
		c1.879-1.174,3.994-2.115,6.344-2.82c2.35-0.704,4.889-1.058,7.615-1.058c0.75,0,1.502,0.049,2.256,0.141
		c0.75,0.096,1.502,0.282,2.256,0.564l-0.705,11.139c-1.883-0.563-3.855-0.846-5.922-0.846c-6.768,0-11.682,2.186-14.734,6.557
		c-3.057,4.371-4.582,10.363-4.582,17.979v32.147h-10.998V62.48H530.2z"/>
	<path d="M578.278,21.026c0-2.16,0.775-4.041,2.328-5.64c1.551-1.597,3.453-2.396,5.709-2.396s4.158,0.8,5.711,2.396
		c1.551,1.6,2.326,3.479,2.326,5.64c0,2.352-0.754,4.278-2.256,5.781c-1.506,1.504-3.434,2.256-5.781,2.256
		c-2.352,0-4.277-0.751-5.781-2.256C579.03,25.305,578.278,23.377,578.278,21.026z M580.817,46.83h10.998v65.987h-10.998V46.83z"/>
	<path d="M672.606,100.833c-3.947,5.076-8.271,8.625-12.973,10.646s-10.15,3.031-16.355,3.031c-5.17,0-9.822-0.917-13.959-2.75
		c-4.139-1.833-7.639-4.3-10.504-7.402c-2.869-3.102-5.076-6.768-6.627-10.998c-1.553-4.229-2.326-8.741-2.326-13.535
		c0-5.076,0.846-9.751,2.537-14.029c1.691-4.276,4.041-7.942,7.051-10.998c3.008-3.054,6.578-5.429,10.715-7.121
		s8.648-2.538,13.537-2.538c4.604,0,8.834,0.776,12.689,2.327c3.854,1.551,7.166,3.807,9.939,6.768
		c2.771,2.961,4.91,6.581,6.416,10.857c1.502,4.278,2.256,9.143,2.256,14.594v3.525h-53.299c0.188,2.819,0.869,5.522,2.045,8.106
		c1.174,2.586,2.701,4.843,4.582,6.769c1.881,1.928,4.09,3.455,6.627,4.583c2.539,1.128,5.311,1.691,8.32,1.691
		c4.793,0,8.834-0.846,12.125-2.538c3.289-1.691,6.25-4.182,8.883-7.473L672.606,100.833z M663.159,73.901
		c-0.189-5.64-2.021-10.151-5.498-13.535c-3.48-3.385-8.273-5.076-14.383-5.076c-6.111,0-11.047,1.691-14.805,5.076
		c-3.762,3.384-6.018,7.896-6.77,13.535H663.159z"/>
	<path d="M697.704,56.135h-14.381V46.83h14.381V32.024c0-4.041,0.375-7.73,1.129-11.067c0.75-3.336,2.043-6.227,3.877-8.672
		c1.832-2.443,4.252-4.348,7.262-5.71c3.008-1.361,6.721-2.045,11.141-2.045c1.408,0,2.912,0.142,4.512,0.424
		c1.596,0.281,2.912,0.705,3.947,1.269l-1.551,9.87c-2.635-0.938-5.125-1.41-7.475-1.41c-2.82,0-5.029,0.494-6.627,1.481
		c-1.6,0.986-2.797,2.351-3.596,4.089c-0.799,1.74-1.27,3.831-1.41,6.273c-0.141,2.445-0.211,5.076-0.211,7.896V46.83h16.074v9.306
		h-16.074v56.682h-10.998V56.135L697.704,56.135z"/>
</g>
</svg>
